<svg width="23" height="20" viewBox="0 0 23 20" fill="none" xmlns="http://www.w3.org/2000/svg">
<path d="M11.1111 0C11.1111 0 4.23778 5.93333 0.396667 9.14667C0.274441 9.25316 0.175967 9.38417 0.107631 9.53117C0.0392962 9.67818 0.00262624 9.83791 0 10C0 10.2947 0.117063 10.5773 0.325437 10.7857C0.533811 10.994 0.816426 11.1111 1.11111 11.1111H3.33333V18.8889C3.33333 19.1836 3.4504 19.4662 3.65877 19.6746C3.86714 19.8829 4.14976 20 4.44444 20H7.77778C8.07246 20 8.35508 19.8829 8.56345 19.6746C8.77182 19.4662 8.88889 19.1836 8.88889 18.8889V14.4444H13.3333V18.8889C13.3333 19.1836 13.4504 19.4662 13.6588 19.6746C13.8671 19.8829 14.1498 20 14.4444 20H17.7778C18.0725 20 18.3551 19.8829 18.5635 19.6746C18.7718 19.4662 18.8889 19.1836 18.8889 18.8889V11.1111H21.1111C21.4058 11.1111 21.6884 10.994 21.8968 10.7857C22.1052 10.5773 22.2222 10.2947 22.2222 10C22.2207 9.8348 22.1815 9.67212 22.1078 9.52427C22.0341 9.37643 21.9277 9.2473 21.7967 9.14667C17.9822 5.93333 11.1111 0 11.1111 0Z" fill="black"/>
</svg>
