<svg width="18" height="20" viewBox="0 0 18 20" fill="none" xmlns="http://www.w3.org/2000/svg">
<path fillRule="evenodd" clipRule="evenodd" d="M12 5C12 6.65685 10.6569 8 9 8C7.34315 8 6 6.65685 6 5C6 3.34315 7.34315 2 9 2C10.6569 2 12 3.34315 12 5ZM14 5C14 7.76142 11.7614 10 9 10C6.23858 10 4 7.76142 4 5C4 2.23858 6.23858 0 9 0C11.7614 0 14 2.23858 14 5ZM15.4672 17.3212C15.5593 17.5436 15.6397 17.7702 15.7082 18H2.2918C2.36031 17.7702 2.44073 17.5436 2.53284 17.3212C2.88463 16.4719 3.40024 15.7003 4.05025 15.0503C4.70026 14.4002 5.47194 13.8846 6.32122 13.5328C7.1705 13.1811 8.08075 13 9 13C9.91925 13 10.8295 13.1811 11.6788 13.5328C12.5281 13.8846 13.2997 14.4002 13.9497 15.0503C14.5998 15.7003 15.1154 16.4719 15.4672 17.3212ZM17.3149 16.5558C17.5091 17.0245 17.6628 17.5077 17.775 18C17.9242 18.6546 18 19.3254 18 20H0C0 19.3254 0.0758355 18.6546 0.225035 18C0.337242 17.5077 0.490942 17.0246 0.685084 16.5558C1.13738 15.4639 1.80031 14.4718 2.63604 13.636C3.47177 12.8003 4.46392 12.1374 5.55585 11.6851C6.64778 11.2328 7.8181 11 9 11C10.1819 11 11.3522 11.2328 12.4442 11.6851C13.5361 12.1374 14.5282 12.8003 15.364 13.636C16.1997 14.4718 16.8626 15.4639 17.3149 16.5558Z" fill="black"/>
</svg>
