<svg width="22" height="22" viewBox="0 0 22 22" fill="none" xmlns="http://www.w3.org/2000/svg">
    <path fillRule="evenodd" clipRule="evenodd" d="M11.0233 0.00194246C9.87931 -0.00561648 8.82782 0.640333 8.31821 1.66208L7.84556 2.60738C7.6593 2.67654 7.47606 2.7523 7.29479 2.83394L6.29285 2.49996C5.21043 2.13864 4.00904 2.4251 3.20695 3.24018C2.41643 4.04362 2.14506 5.22646 2.50188 6.29288L2.83586 7.29287C2.75247 7.47542 2.67445 7.65986 2.60344 7.84755L1.66205 8.31824C0.641367 8.82734 -0.00645651 9.87782 0.00191116 11.0213C0.0101618 12.1488 0.654213 13.1772 1.66009 13.6795L2.60735 14.1561C2.67679 14.3424 2.7523 14.5257 2.83391 14.7068L2.50188 15.7068C2.14092 16.7882 2.42647 17.9885 3.24015 18.7908C4.04297 19.5823 5.22589 19.8539 6.29285 19.4978L7.29284 19.1658C7.47516 19.2489 7.66005 19.3252 7.84752 19.3962L8.31821 20.3357C8.82782 21.3575 9.87931 22.0048 11.0233 21.9958C12.1505 21.9882 13.1793 21.3425 13.6814 20.3357L14.1521 19.3943C14.3407 19.3244 14.5272 19.2485 14.7107 19.1658L15.7068 19.4978C16.7738 19.8538 17.9567 19.5825 18.7595 18.7908C19.5737 17.988 19.8597 16.7867 19.4978 15.7049L19.1657 14.7049C19.2487 14.5231 19.3255 14.339 19.3962 14.1522L20.3376 13.6795C21.3442 13.1775 21.9895 12.1492 21.9977 11.0213C22.0061 9.87778 21.3583 8.82734 20.3376 8.31824L19.3923 7.84559C19.3228 7.65813 19.2476 7.47335 19.1657 7.29091L19.4978 6.29288V6.29093C19.8536 5.225 19.5827 4.04313 18.7927 3.24018C17.9906 2.42495 16.7892 2.13875 15.7068 2.49996L14.7049 2.83394C14.523 2.75117 14.339 2.67415 14.1521 2.60347L13.6814 1.66208C13.1793 0.6553 12.1505 0.0107486 11.0233 0.00194246ZM11.0076 2.00192C11.3837 2.00483 11.7235 2.21811 11.8924 2.5566L12.5271 3.82611C12.5867 3.94552 12.6696 4.05179 12.7709 4.13867C12.8722 4.22554 12.9899 4.29127 13.117 4.33197C13.4937 4.45215 13.8596 4.60295 14.2107 4.78509C14.3292 4.84677 14.4589 4.88408 14.5921 4.89481C14.7253 4.90555 14.8592 4.88949 14.9861 4.84758L16.3376 4.39837H16.3396C16.7038 4.27667 17.0994 4.3719 17.3669 4.64251C17.6304 4.91047 17.7194 5.30133 17.5993 5.66007V5.66203L17.1521 7.00771C17.1104 7.13347 17.0941 7.26625 17.1042 7.39835C17.1142 7.53046 17.1504 7.65924 17.2107 7.77724C17.3906 8.12911 17.5399 8.49581 17.6579 8.87292C17.6982 9.00126 17.7639 9.12016 17.8511 9.22252C17.9384 9.32487 18.0454 9.40858 18.1657 9.46862L19.4431 10.1073C19.7866 10.2785 20.0006 10.6248 19.9978 11.0057C19.995 11.381 19.7818 11.7216 19.4431 11.8905H19.4411L18.1716 12.5272C18.0526 12.587 17.9467 12.67 17.8601 12.7712C17.7736 12.8725 17.7082 12.9901 17.6677 13.117C17.5468 13.4938 17.3954 13.8597 17.2126 14.2107C17.1507 14.3295 17.1132 14.4595 17.1025 14.5931C17.0918 14.7266 17.108 14.8609 17.1501 14.9881L17.5993 16.3377C17.7211 16.7016 17.6287 17.0973 17.3572 17.365C17.0896 17.6288 16.6985 17.7192 16.3396 17.5994H16.3376L14.992 17.1521C14.8659 17.1102 14.7328 17.0937 14.6003 17.1038C14.4679 17.1138 14.3387 17.1502 14.2205 17.2107C13.8681 17.3914 13.5026 17.5414 13.1248 17.6599C12.9965 17.7002 12.8776 17.7659 12.7752 17.8531C12.6728 17.9404 12.5891 18.0474 12.5291 18.1677L11.8924 19.4412C11.7235 19.7798 11.3838 19.9929 11.0076 19.9958C10.6257 19.9988 10.2787 19.7849 10.1073 19.4412L9.4725 18.1736C9.4129 18.0542 9.33001 17.9479 9.22871 17.861C9.12741 17.7742 9.00975 17.7084 8.88266 17.6677C8.50525 17.5468 8.13854 17.3956 7.78697 17.2127C7.66819 17.1507 7.53818 17.1133 7.40465 17.1025C7.27111 17.0918 7.13679 17.108 7.00964 17.1502L5.66004 17.5994C5.30114 17.7192 4.91005 17.6296 4.64248 17.365C4.37095 17.0974 4.27851 16.7017 4.40029 16.3377V16.3357L4.84755 14.99C4.88921 14.8639 4.90532 14.7307 4.89492 14.5982C4.88453 14.4657 4.84784 14.3367 4.78701 14.2186C4.60661 13.8674 4.4565 13.5014 4.33779 13.1248C4.29778 12.9972 4.23256 12.8789 4.14601 12.7769C4.05946 12.6749 3.95332 12.5913 3.83389 12.5311L2.55852 11.8905H2.55657C2.21785 11.7215 2.00463 11.3812 2.00189 11.0057C1.9991 10.6248 2.21304 10.2786 2.55657 10.1073L3.82608 9.47253C3.94549 9.41293 4.05176 9.33005 4.13864 9.22875C4.22551 9.12745 4.29124 9.00978 4.33193 8.88269C4.45284 8.50588 4.60427 8.13999 4.78701 7.78895C4.84869 7.67044 4.886 7.54076 4.89674 7.40759C4.90747 7.27441 4.89141 7.14044 4.84951 7.01357L4.40029 5.66203V5.66007C4.28027 5.3014 4.36923 4.91029 4.63271 4.64251C4.90021 4.37076 5.29583 4.27705 5.66004 4.39837L7.00768 4.84758C7.13372 4.88954 7.26686 4.90597 7.39932 4.89591C7.53177 4.88585 7.6609 4.84951 7.77916 4.78899C8.13046 4.60909 8.49634 4.4598 8.87289 4.34173C9.00123 4.30149 9.12013 4.23578 9.22249 4.14853C9.32484 4.06128 9.40854 3.95428 9.46859 3.83393L10.1073 2.5566C10.2787 2.21267 10.6257 1.99893 11.0076 2.00192ZM11.0037 5.99991C8.25419 5.99991 5.99794 8.24836 5.99793 10.9979C5.99791 13.7474 8.25417 16.0017 11.0037 16.0017C13.7533 16.0017 15.9998 13.7474 15.9998 10.9979C15.9997 8.24836 13.7533 5.99991 11.0037 5.99991ZM11.0037 7.99989C12.6724 7.99989 13.9998 9.32922 13.9998 10.9979C13.9998 12.6666 12.6724 14.0018 11.0037 14.0018C9.33504 14.0018 7.99789 12.6666 7.9979 10.9979C7.99791 9.32922 9.33505 7.99989 11.0037 7.99989Z" fill="black"/>
</svg>