<svg width="47" height="25" viewBox="0 0 47 25" fill="none" xmlns="http://www.w3.org/2000/svg">
<path fillRule="evenodd" clipRule="evenodd" d="M19.0217 3.26087C19.9222 3.26087 20.6522 2.53089 20.6522 1.63043C20.6522 0.729978 19.9222 0 19.0217 0H1.63043C0.729978 0 0 0.729978 0 1.63043C0 2.53089 0.729978 3.26087 1.63043 3.26087H19.0217ZM14.6739 14.1304C15.5744 14.1304 16.3043 13.4004 16.3043 12.5C16.3043 11.5996 15.5744 10.8696 14.6739 10.8696H1.63043C0.729978 10.8696 0 11.5996 0 12.5C0 13.4004 0.729978 14.1304 1.63043 14.1304H14.6739ZM19.0217 25C19.9222 25 20.6522 24.27 20.6522 23.3696C20.6522 22.4691 19.9222 21.7391 19.0217 21.7391H1.63043C0.729978 21.7391 0 22.4691 0 23.3696C0 24.27 0.729978 25 1.63043 25H19.0217ZM25 12.5C25 7.39737 29.1365 3.26087 34.2391 3.26087C39.3417 3.26087 43.4783 7.39737 43.4783 12.5C43.4783 17.6026 39.3417 21.7391 34.2391 21.7391C29.1365 21.7391 25 17.6026 25 12.5ZM34.2391 0C27.3357 0 21.7391 5.59643 21.7391 12.5C21.7391 19.4035 27.3357 25 34.2391 25C41.1426 25 46.7391 19.4035 46.7391 12.5C46.7391 5.59643 41.1426 0 34.2391 0ZM35.8696 8.15217C35.8696 7.25172 35.1396 6.52174 34.2391 6.52174C33.3387 6.52174 32.6087 7.25172 32.6087 8.15217V12.1657C32.6087 12.5578 32.7502 12.937 33.007 13.2335L35.1809 15.7417C35.7707 16.4222 36.8004 16.4957 37.4809 15.9061C38.1613 15.3163 38.2348 14.2865 37.6452 13.6061L35.8696 11.5574V8.15217Z" fill="#111111"/>
</svg>
