<svg width="22" height="18" viewBox="0 0 22 18" fill="none" xmlns="http://www.w3.org/2000/svg">
<path fillRule="evenodd" clipRule="evenodd" d="M6 6C7.10457 6 8 5.10457 8 4C8 2.89543 7.10457 2 6 2C4.89543 2 4 2.89543 4 4C4 5.10457 4.89543 6 6 6ZM6 8C7.86384 8 9.42994 6.72523 9.87398 5H22V3H9.87398C9.42994 1.27477 7.86384 0 6 0C4.13616 0 2.57006 1.27477 2.12602 3H0V5H2.12602C2.57006 6.72523 4.13616 8 6 8ZM16 12C14.8954 12 14 12.8954 14 14C14 15.1046 14.8954 16 16 16C17.1046 16 18 15.1046 18 14C18 12.8954 17.1046 12 16 12ZM16 10C14.1362 10 12.5701 11.2748 12.126 13H0V15H12.126C12.5701 16.7252 14.1362 18 16 18C17.8638 18 19.4299 16.7252 19.874 15H22V13H19.874C19.4299 11.2748 17.8638 10 16 10Z""/>
</svg>
