<svg width="31" height="31" viewBox="0 0 31 31" fill="none" xmlns="http://www.w3.org/2000/svg">
<path fillRule="evenodd" clipRule="evenodd" d="M28 15.5C28 14.6719 28.6714 14 29.5 14C30.3286 14 31 14.6719 31 15.5V25.5C31 28.5322 28.5327 31 25.5 31H5.5C2.46729 31 0 28.5322 0 25.5V5.5C0 2.46777 2.46729 0 5.5 0H15.5C16.3286 0 17 0.671875 17 1.5C17 2.32812 16.3286 3 15.5 3H5.5C4.12158 3 3 4.12109 3 5.5V25.5C3 26.8789 4.12158 28 5.5 28H25.5C26.8784 28 28 26.8789 28 25.5V15.5ZM10.4609 18.6709L12.3237 12.459C12.3955 12.2207 12.5244 12.0049 12.7002 11.8291L24.0894 0.439453C24.6753 -0.146484 25.6245 -0.146484 26.2104 0.439453L30.5605 4.78906C30.8418 5.07031 31 5.45215 31 5.84961C31 6.24707 30.8418 6.62891 30.5605 6.91016L19.1709 18.2998C18.9956 18.4756 18.7788 18.6045 18.541 18.6758L12.3286 20.5381C12.187 20.5811 12.042 20.6016 11.8979 20.6016C11.5059 20.6016 11.1226 20.4473 10.8374 20.1621C10.4473 19.7725 10.3028 19.1992 10.4609 18.6709ZM25.1499 3.62109L15.0889 13.6826L14.1348 16.8652L17.3174 15.9111L27.3784 5.84961L25.1499 3.62109Z" fill="black"/>
</svg>
