<svg width="16" height="14" viewBox="0 0 16 14" fill="none" xmlns="http://www.w3.org/2000/svg">
<path fillRule="evenodd" clipRule="evenodd" d="M7.35267 1.34679C6.57394 0.544388 5.49823 0 4.308 0C1.928 0 0 1.899 0 4.242C0 5.415 0.468 6.488 1.231 7.273C2.963 9.054 8 14 8 14C8 14 13.037 9.054 14.769 7.273C15.5589 6.46186 16.0006 5.37421 16 4.242C16 1.899 14.072 0 11.692 0C10.5018 0 9.42606 0.544388 8.64733 1.34679C8.39952 1.60214 8.18178 1.88362 8 2.182C7.81822 1.88362 7.60048 1.60214 7.35267 1.34679ZM7.146 2.70228L8 4.10406L8.854 2.70228C9.45989 1.70774 10.5332 1 11.692 1C13.5342 1 15 2.46626 15 4.24256C15.0005 5.11395 14.66 5.95154 14.0521 6.57582C13.1942 7.45794 11.5094 9.13245 10.0319 10.5933C9.29469 11.3222 8.61148 11.9956 8.11255 12.4867L8 12.5975L1.9479 6.57582C1.35944 5.9703 1 5.14475 1 4.242C1 2.4657 2.46576 1 4.308 1C5.46677 1 6.54011 1.70774 7.146 2.70228Z" fill="black"/>
</svg>
