<svg width="22" height="20" viewBox="0 0 22 20" fill="none" xmlns="http://www.w3.org/2000/svg">
<path d="M11 4.92215L10.146 3.52025C9.25814 2.06282 7.67084 1 5.923 1C3.18883 1 1 3.17763 1 5.833C1 7.17449 1.53525 8.40308 2.40884 9.30277L11 4.92215ZM11 4.92215L11.854 3.52025M11 4.92215L11.854 3.52025M11.854 3.52025C12.7419 2.06282 14.3292 1 16.077 1C18.8112 1 21 3.17763 21 5.833V5.83328C21.0004 7.12911 20.4949 8.3739 19.5913 9.30264L19.5912 9.30277C18.3896 10.5381 16.0535 13.048 14.0266 15.2393C13.0112 16.3371 12.0704 17.3582 11.3835 18.1048C11.2448 18.2555 11.1165 18.395 11 18.5218C10.8835 18.395 10.7552 18.2555 10.6165 18.1048C9.92957 17.3582 8.98875 16.3371 7.97336 15.2393C5.94663 13.0482 3.61068 10.5384 2.40909 9.30302L11.854 3.52025Z" stroke="black" stroke-width="2"/>
</svg>
