<svg width="17" height="15" viewBox="0 0 17 15" fill="none" xmlns="http://www.w3.org/2000/svg">
<path d="M7.646 5.12433L8.5 6.52612L9.354 5.12433L10.208 3.72255C10.6657 2.97128 11.4416 2.5 12.192 2.5C13.4949 2.5 14.5 3.53142 14.5 4.74256V4.74312C14.5003 5.35348 14.2618 5.94058 13.8357 6.37816L13.8352 6.37865C12.9855 7.25239 11.308 8.91965 9.82882 10.3822C9.35285 10.8528 8.89939 11.3002 8.50356 11.6904L3.1597 6.37338C2.74895 5.94798 2.5 5.37207 2.5 4.742C2.5 3.53108 3.50486 2.5 4.808 2.5C5.55836 2.5 6.33431 2.97128 6.792 3.72255L7.646 5.12433ZM8.99611 13.3764L8.99609 13.3764L8.99611 13.3764ZM8.99111 12.6139C8.85596 12.7471 8.72921 12.8719 8.61255 12.9867L8.6114 12.9856L8.97638 12.6187C8.98127 12.6171 8.98618 12.6155 8.99111 12.6139ZM9.20865 12.3995C9.20627 12.3972 9.20389 12.3948 9.2015 12.3925L10.5319 11.0933C10.0568 11.5631 9.60405 12.0098 9.20865 12.3995Z" stroke="black" stroke-width="2"/>
</svg>
