<svg width="16" height="14" viewBox="0 0 16 14" fill="none" xmlns="http://www.w3.org/2000/svg">
<path d="M7.146 4.62433L8 6.02612L8.854 4.62433L9.708 3.22255C10.1657 2.47128 10.9416 2 11.692 2C12.9949 2 14 3.03142 14 4.24256V4.24312C14.0003 4.85348 13.7618 5.44058 13.3357 5.87816L13.3352 5.87865C12.4855 6.75239 10.808 8.41965 9.32882 9.88217C8.85285 10.3528 8.39939 10.8002 8.00356 11.1904L2.6597 5.87338C2.24895 5.44798 2 4.87207 2 4.242C2 3.03108 3.00486 2 4.308 2C5.05836 2 5.83431 2.47128 6.292 3.22255L7.146 4.62433ZM7.29854 11.8848L7.2985 11.8848L7.99999 12.5975L7.29854 11.8848Z" stroke="black" stroke-width="2"/>
</svg>
