<svg width="21" height="21" viewBox="0 0 21 21" fill="none" xmlns="http://www.w3.org/2000/svg">
<path d="M1.92585 12.459L0.0630626 18.6709C-0.0951374 19.1992 0.0493927 19.7725 0.439523 20.1621C0.724683 20.4473 1.10798 20.6016 1.50007 20.6016C1.64411 20.6016 1.78913 20.581 1.93073 20.5381L8.14313 18.6758C8.38092 18.6045 8.59772 18.4756 8.77301 18.2998L20.1627 6.91016C20.4439 6.62891 20.6021 6.24707 20.6021 5.84961C20.6021 5.45215 20.4439 5.07031 20.1627 4.78906L15.8126 0.439455C15.2266 -0.146485 14.2774 -0.146485 13.6915 0.439455L2.30232 11.8291C2.12653 12.0049 1.99763 12.2207 1.92585 12.459ZM4.69099 13.6826L14.752 3.62109L16.9805 5.84961L6.9195 15.9111L3.73688 16.8652L4.69099 13.6826Z" fill="black"/>
</svg>
